<svg width="100%" height="100%" viewBox="0 0 845 650" fill="none" xmlns="http://www.w3.org/2000/svg">
<rect width="845" height="650" fill="white"/>
<rect width="845" height="650" fill="white"/>
<path d="M639 457.5C773.5 200.5 711.573 326.429 833 63H639L501.5 457.5C501.5 457.5 475.164 492.204 450.5 496C419.156 500.823 379 457.5 379 457.5C379 457.5 504.5 714.5 639 457.5Z" fill="#2400FF" fill-opacity="0.9" stroke="white" stroke-opacity="0.5" stroke-width="5"/>
<path d="M228 177.222C93.5 434.222 155.427 308.293 34 571.722H228L365.5 177.222C365.5 177.222 391.836 142.518 416.5 138.722C447.844 133.899 488 177.222 488 177.222C488 177.222 362.5 -79.7778 228 177.222Z" fill="#2400FF" fill-opacity="0.9" stroke="white" stroke-opacity="0.5" stroke-width="5"/>
<path d="M221.514 374.501H272.051V386H207.378V279.359H221.514V374.501ZM362.288 336.122C362.288 346.571 360.53 355.702 357.015 363.515C353.499 371.278 348.519 377.211 342.073 381.312C335.628 385.414 328.108 387.465 319.515 387.465C311.116 387.465 303.67 385.414 297.176 381.312C290.682 377.162 285.628 371.278 282.015 363.661C278.45 355.995 276.619 347.133 276.521 337.074V329.384C276.521 319.13 278.304 310.072 281.868 302.211C285.433 294.35 290.462 288.344 296.956 284.193C303.499 279.994 310.97 277.895 319.368 277.895C327.913 277.895 335.433 279.97 341.927 284.12C348.47 288.222 353.499 294.203 357.015 302.064C360.53 309.877 362.288 318.983 362.288 329.384V336.122ZM348.299 329.237C348.299 316.591 345.76 306.898 340.682 300.16C335.604 293.373 328.499 289.979 319.368 289.979C310.481 289.979 303.475 293.373 298.348 300.16C293.27 306.898 290.657 316.273 290.511 328.285V336.122C290.511 348.378 293.074 358.021 298.201 365.053C303.377 372.035 310.481 375.526 319.515 375.526C328.597 375.526 335.628 372.23 340.608 365.639C345.589 358.998 348.152 349.501 348.299 337.147V329.237ZM459.117 372.011C455.504 377.187 450.45 381.068 443.956 383.656C437.511 386.195 429.991 387.465 421.397 387.465C412.706 387.465 404.991 385.438 398.253 381.386C391.515 377.284 386.29 371.474 382.579 363.954C378.917 356.435 377.037 347.719 376.939 337.807V328.505C376.939 312.44 380.675 299.989 388.146 291.151C395.665 282.313 406.212 277.895 419.786 277.895C430.919 277.895 439.879 280.751 446.666 286.464C453.453 292.128 457.604 300.185 459.117 310.634H445.055C442.418 296.522 434.02 289.467 419.859 289.467C410.436 289.467 403.282 292.787 398.399 299.428C393.565 306.02 391.124 315.59 391.075 328.139V336.854C391.075 348.817 393.81 358.339 399.278 365.419C404.747 372.45 412.145 375.966 421.471 375.966C426.744 375.966 431.358 375.38 435.313 374.208C439.269 373.036 442.54 371.059 445.128 368.275V344.325H420.445V332.899H459.117V372.011ZM538.515 358.168H493.837L483.803 386H469.301L510.023 279.359H522.328L563.124 386H548.695L538.515 358.168ZM498.085 346.596H534.34L516.176 296.718L498.085 346.596ZM656.438 386H642.302L588.615 303.822V386H574.479V279.359H588.615L642.448 361.903V279.359H656.438V386Z" fill="black"/>
</svg>
